PathFileType	4	(X/Y/Z)	RBDS022\RBDS022runT25.trc
DataRate	CameraRate	NumFrames	NumMarkers	Units	OrigDataRate	OrigDataStartFrame	OrigNumFrames
150.000000	150.000000	4	33	mm	150.000000	2250	4500
Frame#	Time	L.ASIS			L.Heel.Bottom			L.Heel.Lateral			L.Heel.Top			L.Iliac.Crest			L.MT1			L.MT5			L.PSIS			L.Shank.Bottom.Lateral			L.Shank.Bottom.Medial			L.Shank.Top.Lateral			L.Shank.Top.Medial			L.Thigh.Bottom.Lateral			L.Thigh.Bottom.Medial			L.Thigh.Top.Lateral			L.Thigh.Top.Medial			R.ASIS			R.ASY			R.Heel.Bottom			R.Heel.Lateral			R.Heel.Top			R.Iliac.Crest			R.MT1			R.MT5			R.PSIS			R.Shank.Bottom.Lateral			R.Shank.Bottom.Medial			R.Shank.Top.Lateral			R.Shank.Top.Medial			R.Thigh.Bottom.Lateral			R.Thigh.Bottom.Medial			R.Thigh.Top.Lateral			R.Thigh.Top.Medial			
		X1	Y1	Z1	X2	Y2	Z2	X3	Y3	Z3	X4	Y4	Z4	X5	Y5	Z5	X6	Y6	Z6	X7	Y7	Z7	X8	Y8	Z8	X9	Y9	Z9	X10	Y10	Z10	X11	Y11	Z11	X12	Y12	Z12	X13	Y13	Z13	X14	Y14	Z14	X15	Y15	Z15	X16	Y16	Z16	X17	Y17	Z17	X18	Y18	Z18	X19	Y19	Z19	X20	Y20	Z20	X21	Y21	Z21	X22	Y22	Z22	X23	Y23	Z23	X24	Y24	Z24	X25	Y25	Z25	X26	Y26	Z26	X27	Y27	Z27	X28	Y28	Z28	X29	Y29	Z29	X30	Y30	Z30	X31	Y31	Z31	X32	Y32	Z32	X33	Y33	Z33	

2251	15	2225.180992130001	967.8903615016628	899.2505151060852	2031.296017720525	145.9006608853859	958.9116228818942	2063.73484032605	157.6706738934449	911.0867467560819	2057.696105134182	184.1170490082005	961.0189953312308	2152.287208885547	1045.901197539115	845.6801734418534	2238.130434773398	68.40718804433695	968.5705497940764	2193.364140206169	82.4905363635545	862.9839702383359	2053.089768160455	1007.283520775459	962.2797025135991	2152.697104397597	253.9046688051246	889.6384753781037	2118.939510196482	275.0455055033556	928.4877806388369	2180.833620338899	328.1264707510667	874.7882847602074	2148.663280554363	349.2385656372991	912.6342681784978	2297.271915208821	635.5654069595759	847.2820210055169	2239.132745596748	607.1720068669823	881.0138484221981	2242.454700973219	728.4570247257403	830.2354619547174	2185.572410553466	700.5002231487315	859.1844863753382	2212.116352618271	969.8870878479103	1136.398117392962	1947.698988956681	86.43448183943364	1044.888185823117	1760.747640260855	110.2820303926889	1009.388251278821	1788.634642595307	118.4016319554711	1058.986787711126	1784.106976565831	147.2583844180799	1011.780306863316	2160.236924175352	1039.971506667759	1170.50313049195	1955.000048730627	40.15317001803137	998.7403725492209	1921.041292442393	46.01955028140926	1110.669331507706	2056.427886765833	1010.287565050071	1048.139776139771	1872.626916301503	213.9612130437275	1086.981885519802	1850.352586289892	241.4026301897478	1050.205589295074	1916.142316855909	283.50981010361	1110.681279387644	1887.112046112142	309.6572597208588	1073.991838868021	2095.643348632786	594.3602255630971	1155.563213809887	2034.902045531665	608.0059241608477	1120.791710193452	2106.203229513182	702.2359773383987	1179.273319296847	2045.945893094063	714.0693235006664	1147.933582415811	
2252	15.00666666666667	2225.710827486161	973.1281712722316	898.4848222863124	2052.891801718674	131.2127735050321	960.0364745502297	2084.564314846384	144.6403915379037	912.0773696231412	2076.82261841523	171.0089856626256	961.809097403688	2152.648992461555	1052.15537958745	845.5104964075736	2264.115935740079	67.01507005189262	970.7902815149408	2218.759333452063	77.25106924540964	864.9666241871337	2054.009827671234	1011.772432545184	962.2471764558732	2167.463217312855	246.6055218496079	890.2227641464947	2132.596624437539	265.9728722809617	928.9668338137964	2191.241380457321	322.1996270748064	874.8078909555043	2157.975812005979	341.6350506607148	912.6224651437474	2295.134025151346	638.8668228761121	847.4265841410479	2236.750697892914	611.0360292228586	881.1777802899203	2241.042651202893	732.1438938513498	830.1347189025336	2184.049945739861	704.8382305757939	859.381618736115	2213.946011389197	972.7601814186563	1135.3531523343	1935.255114541351	87.6139030768943	1045.811377979777	1749.606234609672	120.2382360937077	1009.749048562214	1777.727370211046	126.656022015997	1059.496661071501	1774.553969514247	156.0809429119301	1012.491065586468	2163.219817795387	1043.844196775445	1169.90174170962	1940.197663608951	41.39738266363303	999.1177858110077	1906.58898593492	47.90915922904139	1111.084515646916	2058.020041482804	1014.327511698235	1048.439300552951	1862.514364275017	220.0318293806199	1087.504574565257	1840.717940787124	247.3805740734577	1050.331052018188	1906.324178872804	289.444937730183	1111.018871070433	1877.727642722486	315.5272915883804	1074.006112594807	2089.994396797225	599.0407846458286	1155.552447012231	2029.807455711578	614.0468215517208	1120.361561585461	2102.970720759497	706.6606337940148	1179.182977280699	2043.123231185694	719.8272358785462	1147.53096776859	
2253	15.01333333333333	2226.301210579814	978.0729629128492	897.7542820306005	2075.109364666669	117.1527076910132	961.168399656181	2105.976496510665	132.1573181540339	913.0797491221707	2096.419479900001	158.3679060883424	962.5553743055372	2152.956172550109	1058.32532314224	845.4555200212276	2289.789627938113	66.7416585770635	973.1466442879484	2244.279552374191	72.95277701136381	867.0779430399292	2055.033265362365	1016.029478952553	962.1724059992406	2182.30088751885	239.6049801082366	890.7732569718272	2146.421337981573	257.1484255483123	929.4111194484504	2201.632583833885	316.30130604555	874.7857959319591	2167.360824676093	334.005391875784	912.5575662981887	2292.444911576054	641.4506103371077	847.4974949061144	2233.763463078019	614.30417119657	881.2613014485607	2239.292764473916	735.2376989452065	830.0078077737029	2182.153058116296	708.7155670944146	859.5902345678792	2215.793562098482	975.523286265605	1134.287812706594	1923.125996605087	88.97483682182337	1046.742504758262	1739.195833530444	130.5351173264807	1010.122416381732	1767.484263202513	135.2411205101735	1060.005204091056	1765.757648056273	165.130368504578	1013.18698961111	2166.37183010707	1047.692872399172	1169.200582606091	1925.784047915006	42.80030830631203	999.5751894142837	1892.400571043553	50.1318500874982	1111.499425521802	2059.644769392275	1018.177428041279	1048.679391027736	1853.064468842153	226.1395326656721	1088.05851557931	1831.726991615668	253.392366388072	1050.489916910897	1897.160838513167	295.4098231986574	1111.37181501927	1868.993809614126	321.4272789004528	1074.046715141331	2084.923951070241	603.6438142006309	1155.586869422506	2025.313753404171	619.9170705030851	1119.961292446211	2100.122546663616	710.9651984928937	1179.18413034645	2040.740670776318	725.3862569275057	1147.152333420614	
2254	15.02	2226.947764467141	982.6182713802	897.0910653861471	2097.783366039755	103.8555791746974	962.307944761788	2127.812864699119	120.3392129748997	914.0921375122006	2116.338731254452	146.3117967135003	963.2469423210929	2153.192769936259	1064.284579446655	845.5205859599349	2314.944002337164	67.65010894071338	975.598047684128	2269.722629134724	69.67386775557699	869.2890827353624	2056.150322007938	1020.012052227279	962.0473277783774	2197.077279010501	232.9916621043013	891.2842955839627	2160.299834917783	248.6749432190127	929.8333313580888	2211.916056339888	310.5174728541374	874.7358651366776	2176.742401868712	326.4466210659604	912.4666748747788	2289.298663090723	643.3176044676161	847.4447722918115	2230.296964287237	616.9616617099739	881.2488935523528	2237.261260964317	737.7122906918341	829.8108750556361	2179.958442594752	712.0807147333729	859.7759234720583	2217.61635801575	978.1567882233311	1133.238325583012	1911.295737352478	90.55159002705662	1047.65262246166	1729.52568720831	141.1066328816613	1010.489819557406	1757.898179542953	144.1115895222612	1060.495163580669	1757.700658178115	174.3488316711567	1013.851221562677	2169.655633760913	1051.474964141817	1168.41032078982	1911.749532255369	44.37971661138075	1000.106209122547	1878.475410150545	52.71419137282301	1111.889870478313	2061.275245520994	1021.811083548005	1048.847959491031	1844.278870387643	232.231917206652	1088.634721963993	1823.369961114738	259.3971967993213	1050.695763817293	1888.684065654363	301.3408108691745	1111.727166431578	1860.924998302756	327.3095262530358	1074.124081626173	2080.466513588293	608.0980938701604	1155.625592006345	2021.432049856855	625.5441731272049	1119.578906253146	2097.685102511767	715.0892199400971	1179.247210288142	2038.804113354574	730.6809289705495	1146.798458067716	
